<svg version="1.1" xmlns="http://www.w3.org/2000/svg" style="display: block;" viewBox="0 0 1600 1600" width="400" height="400" preserveAspectRatio="none">
<path transform="translate(0,0)" fill="rgb(0,0,0)" d="M 0 0 L 1600 0 L 1600 1600 L 0 1600 L 0 0 z"/>
<path transform="translate(0,0)" fill="rgb(244,244,244)" d="M 413.621 656.07 C 411.343 642.423 407.992 613.665 408.779 600.394 C 411.998 536.821 424.798 465.176 474.191 420.114 C 499.851 396.705 569.014 357.931 604.256 361.27 C 659.341 366.49 716.892 378.597 766.115 404.646 C 778.118 410.998 792.603 414.491 801.865 424.767 C 828.573 444.361 859.086 460.567 885.342 481.129 C 888.198 483.366 895.488 488.978 898.642 489.503 L 899.121 487.769 C 897.599 486.954 896.47 486.17 895.037 485.228 C 894.967 484.341 894.881 484.057 895.17 483.087 C 896.842 477.46 942.498 411.468 945.571 410.254 C 945.9 410.124 946.261 410.095 946.603 410.003 C 947.33 409.809 948.051 409.591 948.78 409.403 C 960.657 408.569 977.794 408.409 989.829 408.521 C 1006.37 408.676 1029.54 407.694 1045.53 409.562 C 1085.25 414.205 1133.3 428.65 1164.09 455.177 C 1170.69 460.863 1191.9 481.425 1197.04 488.951 C 1214.41 514.394 1237.25 557.161 1242.87 587.35 C 1244.02 593.499 1240.69 617.529 1239.73 623.872 C 1231.81 676.334 1217.42 729.563 1191.88 776.314 C 1188.98 781.63 1182.7 794.572 1179.16 798.783 C 1176.2 802.985 1173.47 807.328 1170.96 811.818 C 1162.61 826.76 1152.81 840.915 1143.06 854.967 C 1137.54 862.978 1131.82 870.844 1125.89 878.557 C 1122.05 883.479 1113.55 893.082 1111.05 898.136 C 1112.51 899.9 1120.59 903.269 1122.58 903.506 C 1125.2 904.933 1128.18 906.664 1130.84 907.91 C 1139.74 912.964 1190.84 937.784 1191.27 944.776 C 1191.18 973.425 1192.72 1012.17 1190.7 1039.35 C 1187.19 1086.66 1165.75 1143.12 1131.07 1175.98 C 1106.4 1199.36 1079.26 1213.72 1047.95 1226.72 C 1031.19 1233.68 1026.87 1239.21 1008.15 1239.18 C 990.926 1239.15 977.698 1236.05 961.357 1233.76 C 917.455 1227.61 880.919 1216.1 840.562 1197.44 C 828.122 1191.68 812.517 1185.03 801.962 1175.89 C 795.541 1168.89 762.813 1149.56 752.402 1142.38 C 739.712 1133.64 719.461 1118.08 706.956 1111.01 C 696.19 1127.97 686.611 1146.05 676.346 1163.32 C 672.513 1169.77 666.504 1181.19 662.314 1186.81 C 649.468 1188.54 634.922 1187.07 622.349 1189.1 C 609.446 1191.18 599.753 1188.21 587.591 1188.22 C 541.545 1188.25 493.972 1176.67 454.905 1151.84 C 420.649 1129.85 401.204 1098.68 383.686 1063.25 C 366.845 1032.1 362.53 1009.48 366.868 974.233 C 373.945 916.729 393.638 848.769 425.8 799.992 C 426.545 798.216 425.894 799.561 426.713 798.249 C 442.051 773.655 456.828 748.884 475.123 726.228 C 464.606 711.655 442.681 690.726 430.911 676.34 C 425.933 670.256 417.274 662.777 413.621 656.07 z"/>
<path transform="translate(0,0)" fill="rgb(0,0,0)" d="M 899.121 487.769 C 912.763 492.825 927.62 495.472 940.582 500.703 C 972.735 513.679 1004.66 532.996 1018.28 566.54 C 1022.06 575.864 1033.19 602.891 1031.55 612.56 C 1027.28 612.385 995.247 575.706 990.135 571.087 C 960.271 544.105 931.97 512.288 898.642 489.503 L 899.121 487.769 z"/>
<path transform="translate(0,0)" fill="rgb(0,0,0)" d="M 600.279 842.753 C 638.638 767.165 673.747 703.104 728.687 637.57 C 734.371 630.789 755.603 605.584 757.563 599.816 C 764.509 597.132 799.374 617.604 807.795 622.033 C 865.515 652.384 918.61 690.302 969.121 731.388 C 978.073 738.671 994.145 749.147 999.999 759.26 C 1001.74 762.267 998.674 767.815 997.264 770.858 C 965.272 839.922 922.95 903.445 874.301 961.866 C 862.034 976.596 855.98 986.764 841.361 1001.55 C 831.286 996.313 820.98 990.653 810.768 985.784 C 767.151 964.986 727.138 937.092 687.689 909.19 C 670.972 897.193 654.648 884.657 638.744 871.601 C 632.816 866.833 607.758 845.933 602.032 843.475 L 600.279 842.753 z"/>
<path transform="translate(0,0)" fill="rgb(0,0,0)" d="M 1107.82 905.945 L 1108.53 907.074 C 1100.12 930.816 1100.59 940.097 1086.16 964.202 C 1059.53 1008.68 1038.72 1016.25 992.131 1028.75 L 991.51 1027.34 C 995.74 1019.09 1019.75 1000.12 1027.43 991.837 C 1036.43 982.816 1044.79 972.616 1053.8 963.671 C 1068.81 948.779 1083.47 934.682 1096.21 917.712 C 1098.98 914.022 1104.34 909.225 1107.82 905.945 z"/>
<path transform="translate(0,0)" fill="rgb(0,0,0)" d="M 610.938 571.24 L 613.62 571.254 L 613.773 572.207 C 604.544 577.95 595.054 587.941 587.001 595.267 C 562.269 617.765 542.053 642.421 519.909 667.241 C 512.165 675.921 506.323 684.758 497.614 692.765 C 496.15 692.942 496.947 693.039 495.308 692.062 C 495.123 690.597 495.014 690.345 495.527 688.894 C 503.737 665.647 505.307 652.03 519.444 630.46 C 543.057 594.433 570.326 580.25 610.938 571.24 z"/>
<path transform="translate(0,0)" fill="rgb(0,0,0)" d="M 575.585 994.069 C 578.064 996.305 580.422 998.435 582.82 1000.77 C 585.316 1004.04 598.349 1016.07 602.004 1019.97 C 624.976 1044.5 651.429 1064.85 675.659 1088.01 C 679.727 1091.9 691.778 1098.96 693.447 1103.6 L 692.056 1104.62 C 677.707 1098.88 672.216 1101.1 654.931 1092.09 C 628.558 1078.36 599.81 1058.48 587.1 1030.65 C 582.217 1019.96 579.462 1005.67 575.585 994.069 z"/>
<path transform="translate(0,0)" fill="rgb(167,167,170)" d="M 575.585 994.069 C 570.664 982.17 574.423 948.502 575.564 935.256 C 577.823 909.036 585.394 884.213 594.679 859.775 C 596.865 854.024 597.637 848.672 600.279 842.753 L 602.032 843.475 C 597.32 859.822 587.748 880.619 584.415 897.703 C 579.356 923.627 570.042 968.299 579.034 993.454 C 579.959 996.041 582.215 997.072 582.82 1000.77 C 580.422 998.435 578.064 996.305 575.585 994.069 z"/>
<path transform="translate(0,0)" fill="rgb(219,218,218)" d="M 623.166 571.947 C 630.173 571.764 649.017 576.334 657.341 577.916 C 647.795 579.544 631.855 576.632 623.166 571.947 z"/>
<path transform="translate(0,0)" fill="rgb(219,218,218)" d="M 1122.58 903.506 C 1120.59 903.269 1112.51 899.9 1111.05 898.136 C 1113.55 893.082 1122.05 883.479 1125.89 878.557 C 1131.82 870.844 1137.54 862.978 1143.06 854.967 C 1152.81 840.915 1162.61 826.76 1170.96 811.818 C 1173.47 807.328 1176.2 802.985 1179.16 798.783 C 1183.11 810.28 1198.78 829.477 1205.49 840.546 C 1217.31 860.034 1230.39 879.284 1242.51 898.62 C 1289.08 973.814 1331.82 1051.32 1370.55 1130.84 C 1373.45 1136.89 1385.56 1157.1 1382.88 1162.91 C 1375.94 1159.41 1367.16 1143.21 1361.6 1136.85 C 1348.82 1122.23 1336.78 1106.86 1324.5 1091.83 C 1291.01 1051.02 1256.1 1011.4 1219.84 973.03 C 1215.12 967.954 1197.64 942.888 1191.99 943.827 L 1191.27 944.776 C 1190.84 937.784 1139.74 912.964 1130.84 907.91 C 1128.18 906.664 1125.2 904.933 1122.58 903.506 z"/>
<path transform="translate(0,0)" fill="rgb(167,167,170)" d="M 1122.58 903.506 C 1126.09 903.233 1126.31 903.102 1129.36 904.602 C 1130.96 906.672 1130.58 905.56 1130.84 907.91 C 1128.18 906.664 1125.2 904.933 1122.58 903.506 z"/>
<path transform="translate(0,0)" fill="rgb(219,218,218)" d="M 801.865 424.767 L 802.331 424.252 C 807.115 418.867 825.501 407.06 832.496 402.294 C 905.229 352.741 983.855 308.38 1061.41 266.775 C 1085.15 254.037 1148.45 219.451 1171.61 214.862 C 1114.83 258.472 1059.67 304.148 1006.23 351.797 C 999.328 357.932 992.45 365.773 985.368 371.804 C 976.501 379.355 952.693 397.148 947.659 407.427 L 948.78 409.403 C 948.051 409.591 947.33 409.809 946.603 410.003 C 946.261 410.095 945.9 410.124 945.571 410.254 C 942.498 411.468 896.842 477.46 895.17 483.087 C 894.881 484.057 894.967 484.341 895.037 485.228 C 896.47 486.17 897.599 486.954 899.121 487.769 L 898.642 489.503 C 895.488 488.978 888.198 483.366 885.342 481.129 C 859.086 460.567 828.573 444.361 801.865 424.767 z"/>
<path transform="translate(0,0)" fill="rgb(219,218,218)" d="M 706.956 1111.01 C 719.461 1118.08 739.712 1133.64 752.402 1142.38 C 762.813 1149.56 795.541 1168.89 801.962 1175.89 C 787.737 1185.16 773.395 1194.29 759.221 1203.62 C 748.925 1210.39 738.958 1217.98 728.493 1224.55 C 683.212 1252.58 637.201 1279.4 590.507 1305.01 C 546.593 1329.5 503.286 1353.64 457.255 1374.05 C 452.147 1376.32 444.653 1381.41 439.89 1382.41 C 439.925 1377.6 470.249 1354.4 475.847 1349.81 L 539.718 1297.48 C 547.579 1291.04 555.963 1282.9 563.767 1276.05 L 629.606 1217.4 C 637.823 1210.06 657.36 1196.47 662.314 1186.81 C 666.504 1181.19 672.513 1169.77 676.346 1163.32 C 686.611 1146.05 696.19 1127.97 706.956 1111.01 z"/>
<path transform="translate(0,0)" fill="rgb(219,218,218)" d="M 425.8 799.992 C 409.636 774.159 390.691 747.906 374.075 721.697 C 336.055 662.168 300.516 601.091 267.547 538.623 C 262.764 529.422 217.2 439.366 218.318 435.895 C 224.725 439.735 247.921 470.687 254.764 479.023 C 288.819 520.082 323.498 560.619 358.789 600.62 C 364.732 607.32 371.876 614.015 377.611 620.697 C 387.964 632.757 396.703 645.717 409.618 655.637 C 411.415 657.017 410.933 656.527 413.621 656.07 C 417.274 662.777 425.933 670.256 430.911 676.34 C 442.681 690.726 464.606 711.655 475.123 726.228 C 456.828 748.884 442.051 773.655 426.713 798.249 C 425.894 799.561 426.545 798.216 425.8 799.992 z"/>
</svg>